<?xml version="1.0" encoding="utf-8"?>
<!-- Generator: Adobe Illustrator 23.0.0, SVG Export Plug-In . SVG Version: 6.00 Build 0)  -->
<svg version="1.1" id="Layer_1" xmlns="http://www.w3.org/2000/svg" xmlns:xlink="http://www.w3.org/1999/xlink" x="0px" y="0px"
	 width="199.148px" height="199.149px" viewBox="0 0 199.148 199.149" style="enable-background:new 0 0 199.148 199.149;"
	 xml:space="preserve">
<style type="text/css">
	.st0{fill:#FFFFFF;}
</style>
<g>
	<g>
		<path class="st0" d="M99.574,199.149c-26.597,0-51.602-10.357-70.409-29.165C10.358,151.177,0,126.171,0,99.573
			c0-26.597,10.358-51.602,29.165-70.409C47.972,10.358,72.977,0,99.574,0s51.602,10.358,70.41,29.165
			c18.807,18.807,29.164,43.812,29.164,70.409c0,26.598-10.357,51.603-29.164,70.411
			C151.176,188.792,126.171,199.149,99.574,199.149z M99.574,11.919c-48.334,0-87.656,39.322-87.656,87.654
			c0,48.334,39.322,87.656,87.656,87.656s87.656-39.323,87.656-87.656C187.23,51.241,147.908,11.919,99.574,11.919z"/>
	</g>
	<g>
		<g>
			<path class="st0" d="M61.829,62.108c0,8.799,7.133,15.933,15.933,15.933v42.565H54.415v-7.531H38.483v7.531
				c0,8.799,7.133,15.933,15.933,15.933h39.279V62.108H61.829z"/>
		</g>
		<g>
			<path class="st0" d="M144.899,62.108h-41.44v74.431h15.933V78.041h25.507v20.63h-15.933c0,8.799,7.133,15.933,15.933,15.933
				c8.799,0,15.933-7.133,15.933-15.933v-20.63C160.832,69.242,153.699,62.108,144.899,62.108z"/>
		</g>
	</g>
</g>
</svg>
