<?xml version="1.0" encoding="utf-8"?>
<!-- Generator: Adobe Illustrator 23.0.0, SVG Export Plug-In . SVG Version: 6.00 Build 0)  -->
<svg version="1.1" id="Layer_1" xmlns="http://www.w3.org/2000/svg" xmlns:xlink="http://www.w3.org/1999/xlink" x="0px" y="0px"
	 width="1222.987px" height="199.149px" viewBox="0 0 1222.987 199.149" style="enable-background:new 0 0 1222.987 199.149;"
	 xml:space="preserve">
<g>
	<g>
		<path d="M99.574,199.149c-26.597,0-51.602-10.357-70.409-29.165C10.358,151.177,0,126.171,0,99.573
			c0-26.597,10.358-51.602,29.165-70.409C47.972,10.358,72.977,0,99.574,0s51.602,10.358,70.41,29.165
			c18.807,18.807,29.164,43.812,29.164,70.409c0,26.598-10.357,51.603-29.164,70.411
			C151.176,188.792,126.171,199.149,99.574,199.149z M99.574,11.919c-48.334,0-87.656,39.322-87.656,87.654
			c0,48.334,39.322,87.656,87.656,87.656s87.656-39.323,87.656-87.656C187.23,51.241,147.908,11.919,99.574,11.919z"/>
	</g>
	<g>
		<g>
			<path d="M61.829,62.108c0,8.799,7.133,15.933,15.933,15.933v42.565H54.415v-7.531H38.483v7.531
				c0,8.799,7.133,15.933,15.933,15.933h39.279V62.108H61.829z"/>
		</g>
		<g>
			<path d="M144.899,62.108h-41.44v74.431h15.933V78.041h25.507v20.63h-15.933c0,8.799,7.133,15.933,15.933,15.933
				c8.799,0,15.933-7.133,15.933-15.933v-20.63C160.832,69.242,153.699,62.108,144.899,62.108z"/>
		</g>
	</g>
</g>
<g>
	<g>
		<path d="M254.996,169.514c-2.298,0-4.508-0.369-6.63-1.105c-2.122-0.737-4.036-1.843-5.746-3.314l5.923-9.636
			c0.589,0.647,1.297,1.118,2.122,1.414c0.826,0.294,1.68,0.442,2.563,0.442c1.355,0,2.475-0.442,3.359-1.326
			c0.884-0.885,1.326-2.063,1.326-3.536v-47.207h14.144v46.146c0,2.652-0.428,5.098-1.282,7.338
			c-0.855,2.239-2.048,4.155-3.58,5.746c-1.533,1.591-3.331,2.829-5.393,3.713C259.739,169.072,257.471,169.514,254.996,169.514z
			 M257.913,99.942V87.123h14.144v12.818L257.913,99.942L257.913,99.942z"/>
	</g>
	<g>
		<path d="M303.103,152.54c-3.949,0-7.47-0.649-10.564-1.944c-3.094-1.296-5.702-3.05-7.823-5.26
			c-2.122-2.211-3.728-4.774-4.818-7.691c-1.091-2.917-1.636-5.967-1.636-9.149c0-3.183,0.544-6.232,1.636-9.149
			c1.09-2.918,2.696-5.481,4.818-7.691c2.122-2.21,4.729-3.979,7.823-5.304c3.094-1.326,6.615-1.989,10.564-1.989
			c3.947,0,7.455,0.663,10.52,1.989c3.064,1.325,5.658,3.094,7.779,5.304c2.122,2.21,3.742,4.773,4.862,7.691
			c1.119,2.917,1.68,5.967,1.68,9.149c0,3.183-0.545,6.232-1.635,9.149c-1.091,2.917-2.696,5.48-4.818,7.691
			c-2.122,2.21-4.73,3.964-7.824,5.26C310.573,151.891,307.051,152.54,303.103,152.54z M292.76,128.495
			c0,3.654,0.973,6.586,2.917,8.796s4.42,3.315,7.426,3.315c1.472,0,2.829-0.295,4.066-0.885c1.237-0.588,2.312-1.414,3.227-2.475
			c0.913-1.062,1.635-2.343,2.166-3.846c0.53-1.503,0.795-3.139,0.795-4.906c0-3.653-0.972-6.586-2.917-8.796
			s-4.391-3.315-7.337-3.315c-1.474,0-2.844,0.296-4.111,0.884c-1.268,0.59-2.358,1.415-3.271,2.476
			c-0.915,1.061-1.635,2.343-2.166,3.846C293.025,125.092,292.76,126.727,292.76,128.495z"/>
	</g>
	<g>
		<path d="M378.881,151.657h-14.145v-26.079c0-3.063-0.575-5.288-1.724-6.674c-1.149-1.384-2.667-2.077-4.553-2.077
			c-1.003,0-2.02,0.207-3.05,0.618c-1.032,0.413-2.004,0.988-2.917,1.724c-0.915,0.738-1.754,1.606-2.52,2.608
			c-0.767,1.003-1.356,2.093-1.768,3.271v26.609H334.06v-46.411h12.729v7.779c1.709-2.77,4.125-4.906,7.249-6.409
			c3.123-1.503,6.719-2.254,10.785-2.254c3.006,0,5.437,0.545,7.293,1.635c1.856,1.092,3.285,2.506,4.287,4.244
			c1.001,1.738,1.665,3.64,1.989,5.701c0.323,2.064,0.486,4.066,0.486,6.012v29.703H378.881z"/>
	</g>
	<g>
		<path d="M409.688,152.54c-3.89,0-7.382-0.634-10.476-1.9c-3.094-1.267-5.717-2.99-7.868-5.172
			c-2.152-2.18-3.788-4.699-4.906-7.558c-1.12-2.858-1.68-5.849-1.68-8.974c0-3.359,0.56-6.526,1.68-9.503
			c1.119-2.976,2.741-5.583,4.862-7.823c2.122-2.239,4.729-4.008,7.823-5.305c3.094-1.295,6.615-1.944,10.564-1.944
			c3.948,0,7.455,0.649,10.52,1.944c3.064,1.297,5.658,3.05,7.78,5.26c2.122,2.211,3.727,4.761,4.818,7.647
			c1.09,2.888,1.635,5.923,1.635,9.105c0,0.826-0.03,1.635-0.088,2.431c-0.06,0.796-0.148,1.489-0.265,2.077h-34.3
			c0.235,3.125,1.371,5.496,3.404,7.117s4.345,2.431,6.939,2.431c2.062,0,4.051-0.5,5.967-1.503
			c1.914-1.001,3.196-2.356,3.845-4.066l12.023,3.359c-1.828,3.654-4.656,6.63-8.487,8.929
			C419.647,151.391,415.05,152.54,409.688,152.54z M419.501,124.076c-0.295-2.946-1.356-5.274-3.183-6.984
			c-1.827-1.708-4.097-2.563-6.807-2.563c-2.771,0-5.054,0.87-6.852,2.607c-1.798,1.739-2.844,4.053-3.138,6.94H419.501z"/>
	</g>
	<g>
		<path d="M459.157,152.54c-1.945,0-3.964-0.147-6.056-0.441c-2.092-0.296-4.17-0.692-6.232-1.193
			c-2.063-0.5-4.037-1.119-5.923-1.856c-1.887-0.736-3.536-1.548-4.95-2.432l5.569-9.547c3.063,1.768,6.04,3.124,8.928,4.066
			c2.887,0.943,5.658,1.414,8.31,1.414c2.062,0,3.638-0.323,4.729-0.973c1.09-0.647,1.635-1.591,1.635-2.828
			c0-1.238-0.737-2.195-2.21-2.874c-1.474-0.677-4.008-1.487-7.603-2.431c-3.125-0.824-5.776-1.649-7.956-2.476
			c-2.181-0.824-3.934-1.753-5.26-2.784c-1.326-1.03-2.285-2.195-2.873-3.492c-0.59-1.296-0.884-2.829-0.884-4.597
			c0-2.356,0.486-4.509,1.458-6.453c0.973-1.945,2.313-3.595,4.022-4.951c1.708-1.354,3.727-2.415,6.056-3.182
			c2.327-0.766,4.876-1.149,7.646-1.149c3.241,0,6.556,0.486,9.945,1.458c3.388,0.973,6.704,2.314,9.945,4.022l-5.569,8.929
			c-2.888-1.591-5.467-2.754-7.735-3.492c-2.27-0.735-4.464-1.104-6.586-1.104c-1.768,0-3.227,0.31-4.376,0.928
			c-1.149,0.619-1.724,1.606-1.724,2.962c0,0.649,0.146,1.193,0.442,1.636c0.294,0.441,0.78,0.854,1.458,1.237
			c0.677,0.384,1.576,0.737,2.696,1.061c1.119,0.325,2.504,0.693,4.155,1.105c3.417,0.884,6.305,1.768,8.663,2.651
			c2.356,0.885,4.272,1.872,5.746,2.962c1.473,1.091,2.534,2.343,3.183,3.757c0.648,1.415,0.973,3.095,0.973,5.039
			c0,2.299-0.458,4.376-1.371,6.232c-0.914,1.856-2.225,3.434-3.934,4.729c-1.71,1.297-3.772,2.299-6.188,3.006
			C464.873,152.187,462.163,152.54,459.157,152.54z"/>
	</g>
	<g>
		<path d="M498.045,152.54c-2.298,0-4.436-0.368-6.409-1.104c-1.976-0.736-3.669-1.769-5.083-3.095
			c-1.415-1.326-2.535-2.887-3.359-4.685c-0.826-1.798-1.238-3.758-1.238-5.879c0-2.299,0.486-4.39,1.458-6.276
			c0.973-1.886,2.343-3.506,4.111-4.862c1.768-1.355,3.859-2.416,6.276-3.183c2.416-0.766,5.097-1.149,8.045-1.149
			c1.945,0,3.83,0.163,5.658,0.486c1.826,0.324,3.417,0.811,4.773,1.459v-2.122c0-5.362-3.094-8.045-9.282-8.045
			c-2.535,0-4.95,0.429-7.249,1.282c-2.299,0.854-4.716,2.137-7.249,3.846l-4.155-8.841c3.064-2.003,6.246-3.505,9.547-4.508
			c3.3-1.002,6.807-1.503,10.52-1.503c7.013,0,12.435,1.65,16.266,4.95c3.83,3.302,5.746,8.133,5.746,14.498v11.935
			c0,1.414,0.265,2.401,0.796,2.961c0.53,0.562,1.472,0.899,2.829,1.017v11.935c-1.356,0.294-2.608,0.486-3.757,0.574
			c-1.149,0.089-2.166,0.133-3.05,0.133c-2.594-0.06-4.568-0.59-5.923-1.591c-1.356-1.002-2.21-2.445-2.563-4.332l-0.265-2.121
			c-2.064,2.651-4.524,4.685-7.382,6.1C504.247,151.833,501.227,152.54,498.045,152.54z M502.2,142.374
			c1.532,0,3.02-0.266,4.464-0.796c1.443-0.53,2.637-1.237,3.58-2.121c1.355-1.062,2.033-2.18,2.033-3.359v-4.42
			c-1.237-0.472-2.579-0.84-4.022-1.105c-1.445-0.266-2.785-0.397-4.022-0.397c-2.594,0-4.729,0.59-6.409,1.768
			c-1.68,1.18-2.52,2.712-2.52,4.597c0,1.71,0.648,3.109,1.945,4.199C498.545,141.83,500.196,142.374,502.2,142.374z"/>
	</g>
	<g>
		<path d="M581.231,151.657h-14.145v-26.079c0-3.063-0.575-5.288-1.724-6.674c-1.149-1.384-2.667-2.077-4.553-2.077
			c-1.003,0-2.02,0.207-3.05,0.618c-1.032,0.413-2.004,0.988-2.917,1.724c-0.915,0.738-1.754,1.606-2.52,2.608
			c-0.767,1.003-1.356,2.093-1.768,3.271v26.609H536.41v-46.411h12.729v7.779c1.709-2.77,4.125-4.906,7.249-6.409
			c3.123-1.503,6.719-2.254,10.785-2.254c3.006,0,5.437,0.545,7.293,1.635c1.856,1.092,3.285,2.506,4.287,4.244
			c1.001,1.738,1.665,3.64,1.989,5.701c0.323,2.064,0.486,4.066,0.486,6.012v29.703H581.231z"/>
	</g>
	<g>
		<path d="M609.237,152.54c-3.183,0-6.115-0.604-8.796-1.813c-2.683-1.207-4.995-2.901-6.939-5.083
			c-1.945-2.18-3.463-4.729-4.553-7.646c-1.091-2.917-1.636-6.113-1.636-9.592c0-3.359,0.5-6.511,1.503-9.459
			c1.001-2.946,2.416-5.494,4.243-7.646c1.826-2.15,3.992-3.846,6.498-5.083c2.504-1.238,5.26-1.856,8.266-1.856
			c3.183,0,6.1,0.767,8.752,2.298c2.652,1.533,4.686,3.596,6.1,6.188V87.123h14.145v48.621c0,1.414,0.265,2.401,0.795,2.961
			c0.531,0.562,1.473,0.899,2.829,1.017v11.935c-1.474,0.294-2.756,0.486-3.846,0.574c-1.091,0.089-2.077,0.133-2.961,0.133
			c-4.95-0.118-7.779-2.091-8.486-5.923l-0.265-2.476c-1.71,2.889-3.949,5.039-6.719,6.454
			C615.394,151.833,612.419,152.54,609.237,152.54z M613.038,140.607c1.945,0,3.801-0.575,5.569-1.725s3.152-2.725,4.155-4.729
			v-9.724c-0.884-2.356-2.313-4.288-4.287-5.791c-1.976-1.503-4.022-2.254-6.144-2.254c-1.533,0-2.933,0.34-4.199,1.017
			c-1.268,0.678-2.373,1.577-3.315,2.696c-0.943,1.12-1.666,2.417-2.166,3.89c-0.501,1.474-0.751,3.036-0.751,4.686
			c0,3.478,1.03,6.336,3.094,8.575C607.056,139.488,609.737,140.607,613.038,140.607z"/>
	</g>
	<g>
		<path d="M676.934,152.54c-3.536,0-6.601-0.737-9.193-2.21c-2.594-1.473-4.627-3.536-6.1-6.188v26.345h-14.144v-65.241h12.376
			v7.514c1.709-2.651,3.831-4.714,6.365-6.188c2.533-1.473,5.569-2.21,9.105-2.21c3.123,0,6.011,0.618,8.663,1.856
			c2.652,1.237,4.936,2.933,6.852,5.083c1.914,2.152,3.417,4.686,4.508,7.603c1.09,2.917,1.635,6.056,1.635,9.415
			c0,3.478-0.501,6.689-1.502,9.636c-1.003,2.947-2.402,5.496-4.199,7.646c-1.798,2.152-3.92,3.846-6.365,5.083
			C682.488,151.922,679.821,152.54,676.934,152.54z M672.072,140.607c1.532,0,2.931-0.339,4.199-1.018
			c1.267-0.677,2.372-1.575,3.315-2.695c0.942-1.119,1.665-2.432,2.166-3.935c0.5-1.503,0.751-3.079,0.751-4.729
			c0-1.708-0.281-3.284-0.84-4.729c-0.561-1.443-1.326-2.696-2.299-3.757c-0.972-1.061-2.137-1.886-3.492-2.476
			c-1.356-0.588-2.859-0.884-4.509-0.884c-1.945,0-3.801,0.574-5.569,1.724c-1.768,1.149-3.153,2.696-4.155,4.642v9.547
			c0.942,2.358,2.372,4.332,4.288,5.923C667.843,139.811,669.891,140.607,672.072,140.607z"/>
	</g>
	<g>
		<path d="M716.078,152.54c-2.298,0-4.436-0.368-6.409-1.104c-1.976-0.736-3.669-1.769-5.083-3.095
			c-1.415-1.326-2.535-2.887-3.359-4.685c-0.826-1.798-1.238-3.758-1.238-5.879c0-2.299,0.486-4.39,1.458-6.276
			c0.973-1.886,2.343-3.506,4.111-4.862c1.768-1.355,3.859-2.416,6.276-3.183c2.416-0.766,5.097-1.149,8.045-1.149
			c1.945,0,3.83,0.163,5.658,0.486c1.826,0.324,3.417,0.811,4.773,1.459v-2.122c0-5.362-3.094-8.045-9.282-8.045
			c-2.535,0-4.95,0.429-7.249,1.282c-2.299,0.854-4.716,2.137-7.249,3.846l-4.155-8.841c3.064-2.003,6.246-3.505,9.547-4.508
			c3.3-1.002,6.807-1.503,10.52-1.503c7.013,0,12.435,1.65,16.266,4.95c3.83,3.302,5.746,8.133,5.746,14.498v11.935
			c0,1.414,0.265,2.401,0.796,2.961c0.53,0.562,1.472,0.899,2.829,1.017v11.935c-1.356,0.294-2.608,0.486-3.757,0.574
			c-1.149,0.089-2.166,0.133-3.05,0.133c-2.594-0.06-4.568-0.59-5.923-1.591c-1.356-1.002-2.21-2.445-2.563-4.332l-0.265-2.121
			c-2.064,2.651-4.524,4.685-7.382,6.1C722.279,151.833,719.26,152.54,716.078,152.54z M720.232,142.374
			c1.532,0,3.02-0.266,4.464-0.796c1.443-0.53,2.637-1.237,3.58-2.121c1.355-1.062,2.033-2.18,2.033-3.359v-4.42
			c-1.237-0.472-2.579-0.84-4.022-1.105c-1.445-0.266-2.785-0.397-4.022-0.397c-2.594,0-4.729,0.59-6.409,1.768
			c-1.68,1.18-2.52,2.712-2.52,4.597c0,1.71,0.648,3.109,1.945,4.199C716.578,141.83,718.228,142.374,720.232,142.374z"/>
	</g>
	<g>
		<path d="M753.887,87.123h14.145v47.206c0,3.536,1.531,5.305,4.596,5.305c0.648,0,1.4-0.117,2.254-0.354
			c0.854-0.235,1.637-0.53,2.344-0.885l1.855,11.404c-1.768,0.826-3.801,1.474-6.1,1.945c-2.299,0.471-4.42,0.707-6.365,0.707
			c-4.066,0-7.204-1.062-9.414-3.183c-2.21-2.122-3.315-5.186-3.315-9.194L753.887,87.123L753.887,87.123z"/>
	</g>
	<g>
		<path d="M856.105,151.657H841.96v-26.079c0-3.063-0.545-5.288-1.635-6.674c-1.092-1.384-2.55-2.077-4.376-2.077
			c-1.887,0-3.729,0.767-5.525,2.298c-1.799,1.533-3.109,3.507-3.934,5.923v26.609h-14.145v-26.079c0-3.063-0.546-5.288-1.636-6.674
			c-1.091-1.384-2.55-2.077-4.376-2.077c-1.887,0-3.728,0.751-5.525,2.254s-3.108,3.492-3.934,5.967v26.609h-14.145v-46.411h12.73
			v7.779c1.708-2.829,4.036-4.979,6.983-6.453c2.946-1.473,6.365-2.21,10.255-2.21c1.886,0,3.565,0.236,5.039,0.707
			c1.473,0.473,2.725,1.12,3.757,1.944c1.03,0.826,1.886,1.783,2.563,2.873c0.677,1.092,1.163,2.255,1.459,3.492
			c1.709-2.887,4.007-5.112,6.896-6.674c2.887-1.562,6.188-2.343,9.9-2.343c2.946,0,5.318,0.545,7.117,1.635
			c1.797,1.092,3.196,2.506,4.198,4.244s1.665,3.64,1.989,5.701c0.323,2.064,0.486,4.066,0.486,6.012v29.704H856.105z"/>
	</g>
	<g>
		<path d="M886.913,152.54c-3.89,0-7.381-0.634-10.476-1.9c-3.094-1.267-5.717-2.99-7.867-5.172
			c-2.152-2.18-3.788-4.699-4.906-7.558c-1.121-2.858-1.68-5.849-1.68-8.974c0-3.359,0.559-6.526,1.68-9.503
			c1.118-2.976,2.74-5.583,4.861-7.823c2.122-2.239,4.729-4.008,7.824-5.305c3.094-1.295,6.614-1.944,10.563-1.944
			c3.948,0,7.455,0.649,10.521,1.944c3.063,1.297,5.657,3.05,7.779,5.26c2.121,2.211,3.727,4.761,4.817,7.647
			c1.09,2.888,1.636,5.923,1.636,9.105c0,0.826-0.03,1.635-0.089,2.431s-0.147,1.489-0.265,2.077h-34.3
			c0.234,3.125,1.37,5.496,3.403,7.117s4.346,2.431,6.939,2.431c2.063,0,4.051-0.5,5.967-1.503c1.915-1.001,3.196-2.356,3.846-4.066
			l12.022,3.359c-1.827,3.654-4.656,6.63-8.486,8.929C896.872,151.391,892.275,152.54,886.913,152.54z M896.725,124.076
			c-0.295-2.946-1.356-5.274-3.182-6.984c-1.828-1.708-4.098-2.563-6.808-2.563c-2.771,0-5.054,0.87-6.851,2.607
			c-1.799,1.739-2.845,4.053-3.139,6.94H896.725z"/>
	</g>
	<g>
		<path d="M946.848,117.357c-3.419,0.06-6.498,0.618-9.238,1.68c-2.74,1.061-4.76,2.651-6.056,4.773v27.847H917.41v-46.411h12.995
			v9.37c1.649-3.123,3.727-5.554,6.232-7.293c2.505-1.737,5.172-2.666,8.001-2.784c1.178,0,1.914,0.03,2.21,0.088L946.848,117.357
			L946.848,117.357z"/>
	</g>
	<g>
		<path d="M946.007,151.657v-14.409h11.492v14.409H946.007z"/>
	</g>
	<g>
		<path d="M962.432,128.407c0-3.183,0.559-6.232,1.68-9.149c1.118-2.917,2.74-5.48,4.861-7.691c2.122-2.21,4.729-3.963,7.824-5.26
			c3.094-1.295,6.614-1.944,10.563-1.944c5.362,0,9.871,1.135,13.525,3.403c3.654,2.27,6.395,5.23,8.222,8.885l-13.791,4.154
			c-1.827-2.946-4.508-4.42-8.044-4.42c-2.948,0-5.408,1.091-7.382,3.271c-1.976,2.182-2.962,5.099-2.962,8.752
			c0,1.828,0.266,3.492,0.796,4.995s1.267,2.784,2.21,3.846c0.942,1.061,2.047,1.887,3.315,2.475
			c1.267,0.59,2.607,0.885,4.022,0.885c1.768,0,3.388-0.428,4.862-1.282c1.472-0.854,2.563-1.959,3.271-3.315l13.791,4.243
			c-1.71,3.596-4.436,6.542-8.178,8.841c-3.743,2.298-8.296,3.447-13.658,3.447c-3.89,0-7.381-0.663-10.476-1.989
			c-3.094-1.325-5.717-3.094-7.867-5.304c-2.152-2.21-3.788-4.773-4.906-7.691C962.991,134.639,962.432,131.589,962.432,128.407z"/>
	</g>
	<g>
		<path d="M1035.919,152.54c-3.949,0-7.47-0.649-10.564-1.944c-3.094-1.296-5.702-3.05-7.823-5.26
			c-2.122-2.211-3.729-4.774-4.818-7.691c-1.091-2.917-1.635-5.967-1.635-9.149c0-3.183,0.544-6.232,1.635-9.149
			c1.09-2.918,2.696-5.481,4.818-7.691c2.121-2.21,4.729-3.979,7.823-5.304c3.095-1.326,6.615-1.989,10.564-1.989
			c3.947,0,7.454,0.663,10.52,1.989c3.063,1.325,5.658,3.094,7.779,5.304c2.122,2.21,3.742,4.773,4.862,7.691
			c1.119,2.917,1.68,5.967,1.68,9.149c0,3.183-0.546,6.232-1.636,9.149c-1.091,2.917-2.696,5.48-4.817,7.691
			c-2.122,2.21-4.729,3.964-7.824,5.26C1043.389,151.891,1039.867,152.54,1035.919,152.54z M1025.576,128.495
			c0,3.654,0.973,6.586,2.918,8.796c1.944,2.21,4.42,3.315,7.426,3.315c1.473,0,2.829-0.295,4.066-0.885
			c1.237-0.588,2.313-1.414,3.227-2.475c0.913-1.062,1.636-2.343,2.166-3.846s0.796-3.139,0.796-4.906
			c0-3.653-0.973-6.586-2.918-8.796c-1.944-2.21-4.391-3.315-7.337-3.315c-1.474,0-2.845,0.296-4.111,0.884
			c-1.268,0.59-2.357,1.415-3.271,2.476s-1.636,2.343-2.166,3.846S1025.576,126.727,1025.576,128.495z"/>
	</g>
	<g>
		<path d="M1065.604,151.657v-14.409h11.492v14.409H1065.604z"/>
	</g>
	<g>
		<path d="M1099.665,152.54c-4.716,0-8.31-1.487-10.785-4.464c-2.475-2.976-3.713-7.352-3.713-13.128v-29.703h14.145v26.609
			c0,2.828,0.56,4.994,1.68,6.497c1.119,1.503,2.71,2.255,4.773,2.255c1.886,0,3.713-0.501,5.481-1.503s3.329-2.741,4.686-5.216
			v-28.643h14.144v30.499c0,1.414,0.266,2.401,0.796,2.961c0.53,0.562,1.473,0.899,2.829,1.017v11.935
			c-1.474,0.294-2.756,0.486-3.846,0.574c-1.091,0.089-2.049,0.133-2.873,0.133c-4.95-0.06-7.81-2.033-8.575-5.923l-0.265-2.829
			c-2.122,3.065-4.761,5.319-7.912,6.763C1107.076,151.818,1103.554,152.54,1099.665,152.54z"/>
	</g>
	<g>
		<path d="M1171.959,151.657l-12.111-18.653l-4.95,5.128v13.525h-14.145V87.123h14.145v37.394l15.735-19.271h15.028l-16.708,19.979
			l18.034,26.433h-15.028V151.657z"/>
	</g>
</g>
<g>
	<path d="M243.303,41.444c2.569-0.388,5.624-0.679,8.969-0.679c6.06,0,10.374,1.406,13.234,4.072
		c2.908,2.666,4.605,6.447,4.605,11.731c0,5.332-1.648,9.695-4.702,12.701c-3.055,3.054-8.096,4.702-14.446,4.702
		c-3.006,0-5.526-0.146-7.66-0.388V41.444z M247.521,70.336c1.066,0.193,2.618,0.242,4.267,0.242
		c9.017,0,13.912-5.042,13.912-13.864c0.049-7.708-4.314-12.604-13.233-12.604c-2.182,0-3.83,0.194-4.945,0.437L247.521,70.336
		L247.521,70.336z"/>
	<path d="M276.799,62.725c0.098,5.769,3.781,8.145,8.048,8.145c3.054,0,4.896-0.533,6.496-1.212l0.727,3.054
		c-1.503,0.679-4.072,1.454-7.805,1.454c-7.223,0-11.537-4.75-11.537-11.828c0-7.077,4.169-12.652,11.004-12.652
		c7.659,0,9.695,6.738,9.695,11.053c0,0.872-0.097,1.551-0.146,1.987h-16.482V62.725z M289.307,59.671
		c0.048-2.715-1.115-6.933-5.914-6.933c-4.314,0-6.205,3.976-6.545,6.933H289.307z"/>
	<path d="M296.916,69.318c1.261,0.824,3.49,1.697,5.624,1.697c3.103,0,4.557-1.552,4.557-3.49c0-2.036-1.212-3.151-4.363-4.314
		c-4.218-1.503-6.205-3.83-6.205-6.642c0-3.781,3.055-6.884,8.096-6.884c2.376,0,4.46,0.679,5.769,1.454l-1.066,3.103
		c-0.921-0.582-2.617-1.357-4.799-1.357c-2.521,0-3.927,1.454-3.927,3.199c0,1.939,1.406,2.813,4.46,3.976
		c4.072,1.551,6.156,3.587,6.156,7.078c0,4.12-3.199,7.028-8.774,7.028c-2.569,0-4.944-0.63-6.593-1.6L296.916,69.318z"/>
	<path d="M320.233,43.625c0.049,1.454-1.018,2.617-2.715,2.617c-1.502,0-2.569-1.163-2.569-2.617c0-1.503,1.115-2.666,2.667-2.666
		C319.216,40.959,320.233,42.122,320.233,43.625z M315.483,73.681V50.218h4.266v23.463H315.483z"/>
	<path d="M345.829,50.218c-0.098,1.696-0.194,3.587-0.194,6.447v13.622c0,5.381-1.066,8.678-3.345,10.714
		c-2.278,2.133-5.575,2.812-8.532,2.812c-2.812,0-5.914-0.679-7.805-1.939l1.066-3.248c1.552,0.97,3.976,1.843,6.884,1.843
		c4.363,0,7.563-2.278,7.563-8.193v-2.617h-0.097c-1.31,2.182-3.83,3.927-7.466,3.927c-5.817,0-9.986-4.945-9.986-11.44
		c0-7.951,5.188-12.459,10.568-12.459c4.072,0,6.302,2.133,7.319,4.072h0.098l0.193-3.539h3.734V50.218z M341.417,59.477
		c0-0.727-0.048-1.357-0.242-1.938c-0.775-2.473-2.86-4.509-5.963-4.509c-4.071,0-6.98,3.442-6.98,8.871
		c0,4.605,2.327,8.436,6.933,8.436c2.617,0,4.993-1.648,5.914-4.363c0.242-0.727,0.339-1.551,0.339-2.278L341.417,59.477
		L341.417,59.477z"/>
	<path d="M351.209,56.569c0-2.424-0.049-4.411-0.194-6.351h3.781l0.243,3.878h0.097c1.163-2.229,3.878-4.411,7.756-4.411
		c3.248,0,8.29,1.939,8.29,9.986v14.01h-4.266V60.156c0-3.781-1.406-6.932-5.43-6.932c-2.812,0-4.993,1.987-5.721,4.362
		c-0.193,0.533-0.291,1.261-0.291,1.988V73.68h-4.266L351.209,56.569L351.209,56.569z"/>
	<path d="M379.276,62.725c0.097,5.769,3.781,8.145,8.047,8.145c3.055,0,4.896-0.533,6.496-1.212l0.728,3.054
		c-1.503,0.679-4.072,1.454-7.805,1.454c-7.224,0-11.538-4.75-11.538-11.828c0-7.077,4.169-12.652,11.005-12.652
		c7.659,0,9.695,6.738,9.695,11.053c0,0.872-0.098,1.551-0.146,1.987h-16.482V62.725z M391.783,59.671
		c0.049-2.715-1.115-6.933-5.914-6.933c-4.314,0-6.205,3.976-6.544,6.933H391.783z"/>
	<path d="M420.238,39.262v28.359c0,2.084,0.049,4.46,0.194,6.06h-3.83l-0.193-4.072h-0.098c-1.309,2.618-4.169,4.605-7.998,4.605
		c-5.672,0-10.035-4.799-10.035-11.926c-0.049-7.805,4.8-12.604,10.52-12.604c3.588,0,6.012,1.696,7.078,3.587h0.097v-14.01
		L420.238,39.262L420.238,39.262z M415.973,59.768c0-0.533-0.049-1.261-0.194-1.794c-0.63-2.714-2.957-4.944-6.156-4.944
		c-4.411,0-7.029,3.878-7.029,9.065c0,4.751,2.327,8.678,6.933,8.678c2.86,0,5.478-1.891,6.253-5.091
		c0.146-0.581,0.194-1.163,0.194-1.842v-4.072H415.973z"/>
	<path d="M448.16,73.681l-0.339-2.957h-0.146c-1.31,1.842-3.83,3.49-7.175,3.49c-4.751,0-7.175-3.345-7.175-6.738
		c0-5.672,5.042-8.774,14.107-8.726v-0.485c0-1.938-0.533-5.429-5.333-5.429c-2.182,0-4.46,0.679-6.108,1.745l-0.969-2.813
		c1.938-1.26,4.75-2.084,7.707-2.084c7.175,0,8.92,4.896,8.92,9.599v8.774c0,2.036,0.098,4.023,0.388,5.623L448.16,73.681
		L448.16,73.681z M447.53,61.707c-4.654-0.098-9.938,0.727-9.938,5.284c0,2.763,1.842,4.071,4.023,4.071
		c3.054,0,4.993-1.938,5.672-3.926c0.146-0.437,0.242-0.922,0.242-1.357L447.53,61.707L447.53,61.707z"/>
	<path d="M457.322,56.569c0-2.424-0.049-4.411-0.194-6.351h3.781l0.242,3.878h0.097c1.164-2.229,3.879-4.411,7.757-4.411
		c3.248,0,8.289,1.939,8.289,9.986v14.01h-4.266V60.156c0-3.781-1.406-6.932-5.43-6.932c-2.812,0-4.993,1.987-5.72,4.362
		c-0.194,0.533-0.291,1.261-0.291,1.988V73.68h-4.266L457.322,56.569L457.322,56.569z"/>
	<path d="M503.277,39.262v28.359c0,2.084,0.048,4.46,0.193,6.06h-3.829l-0.194-4.072h-0.097c-1.309,2.618-4.169,4.605-7.999,4.605
		c-5.672,0-10.034-4.799-10.034-11.926c-0.049-7.805,4.799-12.604,10.52-12.604c3.587,0,6.011,1.696,7.077,3.587h0.097v-14.01
		L503.277,39.262L503.277,39.262z M499.011,59.768c0-0.533-0.048-1.261-0.193-1.794c-0.63-2.714-2.957-4.944-6.157-4.944
		c-4.411,0-7.028,3.878-7.028,9.065c0,4.751,2.326,8.678,6.932,8.678c2.86,0,5.479-1.891,6.254-5.091
		c0.146-0.581,0.193-1.163,0.193-1.842v-4.072H499.011z"/>
	<path d="M538.47,39.262v28.359c0,2.084,0.049,4.46,0.194,6.06h-3.83l-0.193-4.072h-0.098c-1.309,2.618-4.169,4.605-7.998,4.605
		c-5.672,0-10.035-4.799-10.035-11.926c-0.049-7.805,4.8-12.604,10.52-12.604c3.588,0,6.012,1.696,7.078,3.587h0.097v-14.01
		L538.47,39.262L538.47,39.262z M534.204,59.768c0-0.533-0.049-1.261-0.194-1.794c-0.63-2.714-2.957-4.944-6.156-4.944
		c-4.411,0-7.029,3.878-7.029,9.065c0,4.751,2.327,8.678,6.933,8.678c2.86,0,5.478-1.891,6.253-5.091
		c0.146-0.581,0.194-1.163,0.194-1.842L534.204,59.768L534.204,59.768z"/>
	<path d="M546.71,62.725c0.098,5.769,3.781,8.145,8.048,8.145c3.054,0,4.896-0.533,6.496-1.212l0.727,3.054
		c-1.503,0.679-4.072,1.454-7.805,1.454c-7.223,0-11.537-4.75-11.537-11.828c0-7.077,4.169-12.652,11.004-12.652
		c7.659,0,9.695,6.738,9.695,11.053c0,0.872-0.097,1.551-0.146,1.987H546.71V62.725z M559.218,59.671
		c0.048-2.715-1.115-6.933-5.914-6.933c-4.314,0-6.205,3.976-6.545,6.933H559.218z"/>
	<path d="M569.058,50.218l4.605,13.186c0.775,2.133,1.405,4.072,1.891,6.012h0.146c0.533-1.939,1.212-3.879,1.987-6.012
		l4.557-13.186h4.46l-9.211,23.463h-4.072l-8.919-23.463C564.502,50.218,569.058,50.218,569.058,50.218z"/>
	<path d="M591.404,62.725c0.098,5.769,3.781,8.145,8.048,8.145c3.054,0,4.896-0.533,6.496-1.212l0.727,3.054
		c-1.503,0.679-4.072,1.454-7.805,1.454c-7.223,0-11.537-4.75-11.537-11.828c0-7.077,4.169-12.652,11.004-12.652
		c7.659,0,9.695,6.738,9.695,11.053c0,0.872-0.097,1.551-0.146,1.987h-16.482V62.725z M603.912,59.671
		c0.048-2.715-1.115-6.933-5.914-6.933c-4.314,0-6.205,3.976-6.545,6.933H603.912z"/>
	<path d="M612.104,39.262h4.266v34.419h-4.266V39.262z"/>
	<path d="M643.564,61.755c0,8.678-6.011,12.459-11.683,12.459c-6.351,0-11.247-4.653-11.247-12.07
		c0-7.854,5.139-12.459,11.635-12.459C639.008,49.685,643.564,54.581,643.564,61.755z M624.949,61.998
		c0,5.139,2.957,9.017,7.126,9.017c4.072,0,7.126-3.83,7.126-9.114c0-3.975-1.987-9.017-7.028-9.017
		C627.131,52.884,624.949,57.538,624.949,61.998z"/>
	<path d="M647.733,57.877c0-3.006-0.098-5.43-0.194-7.659h3.83l0.193,4.023h0.097c1.745-2.86,4.509-4.557,8.339-4.557
		c5.672,0,9.938,4.799,9.938,11.925c0,8.436-5.139,12.604-10.665,12.604c-3.103,0-5.817-1.357-7.223-3.685h-0.098v12.75h-4.217
		V57.877z M651.95,64.131c0,0.63,0.098,1.212,0.194,1.745c0.775,2.957,3.345,4.993,6.398,4.993c4.509,0,7.127-3.685,7.127-9.065
		c0-4.702-2.473-8.726-6.981-8.726c-2.908,0-5.623,2.084-6.447,5.284c-0.146,0.533-0.291,1.163-0.291,1.745L651.95,64.131
		L651.95,64.131z"/>
	<path d="M676.479,62.725c0.098,5.769,3.781,8.145,8.048,8.145c3.054,0,4.896-0.533,6.496-1.212l0.727,3.054
		c-1.503,0.679-4.072,1.454-7.805,1.454c-7.223,0-11.537-4.75-11.537-11.828c0-7.077,4.169-12.652,11.004-12.652
		c7.659,0,9.695,6.738,9.695,11.053c0,0.872-0.097,1.551-0.146,1.987h-16.482V62.725z M688.986,59.671
		c0.048-2.715-1.115-6.933-5.914-6.933c-4.314,0-6.205,3.976-6.545,6.933H688.986z"/>
	<path d="M717.441,39.262v28.359c0,2.084,0.048,4.46,0.193,6.06h-3.829l-0.194-4.072h-0.097c-1.309,2.618-4.169,4.605-7.999,4.605
		c-5.672,0-10.034-4.799-10.034-11.926c-0.049-7.805,4.799-12.604,10.52-12.604c3.587,0,6.011,1.696,7.077,3.587h0.097v-14.01
		L717.441,39.262L717.441,39.262z M713.175,59.768c0-0.533-0.048-1.261-0.193-1.794c-0.63-2.714-2.957-4.944-6.157-4.944
		c-4.411,0-7.028,3.878-7.028,9.065c0,4.751,2.326,8.678,6.932,8.678c2.86,0,5.479-1.891,6.254-5.091
		c0.146-0.581,0.193-1.163,0.193-1.842v-4.072H713.175z"/>
	<path d="M732.177,73.681c0.097-1.6,0.194-3.976,0.194-6.06V39.262h4.217v14.737h0.098c1.502-2.618,4.217-4.314,7.998-4.314
		c5.817,0,9.938,4.848,9.89,11.974c0,8.387-5.284,12.556-10.52,12.556c-3.394,0-6.108-1.309-7.854-4.411h-0.146l-0.193,3.878
		L732.177,73.681L732.177,73.681z M736.588,64.277c0,0.533,0.098,1.066,0.194,1.551c0.824,2.957,3.296,4.993,6.398,4.993
		c4.46,0,7.127-3.636,7.127-9.017c0-4.702-2.424-8.726-6.981-8.726c-2.908,0-5.623,1.987-6.496,5.235
		c-0.097,0.484-0.242,1.066-0.242,1.745V64.277z"/>
	<path d="M759.954,50.218l5.138,13.864c0.533,1.552,1.115,3.394,1.503,4.8h0.098c0.436-1.406,0.921-3.2,1.502-4.896l4.654-13.768
		h4.508l-6.398,16.725c-3.054,8.047-5.139,12.168-8.047,14.688c-2.085,1.842-4.17,2.569-5.236,2.764l-1.066-3.588
		c1.066-0.339,2.473-1.018,3.733-2.084c1.163-0.922,2.617-2.569,3.587-4.751c0.194-0.437,0.34-0.775,0.34-1.019
		c0-0.242-0.098-0.581-0.291-1.114L755.3,50.218H759.954z"/>
	<path d="M780.167,54.096c0-1.794,1.212-3.054,2.908-3.054c1.697,0,2.813,1.26,2.86,3.054c0,1.697-1.114,3.006-2.908,3.006
		C781.33,57.102,780.167,55.793,780.167,54.096z M780.167,71.208c0-1.793,1.212-3.054,2.908-3.054c1.697,0,2.813,1.261,2.86,3.054
		c0,1.697-1.114,3.006-2.908,3.006C781.33,74.214,780.167,72.906,780.167,71.208z"/>
</g>
</svg>
